<?xml version="1.0" encoding="UTF-8"?><svg id="Layer_1" xmlns="http://www.w3.org/2000/svg" xmlns:xlink="http://www.w3.org/1999/xlink" viewBox="0 0 50 50"><defs><style>.cls-1{fill:url(#linear-gradient);stroke-width:0px;}</style><linearGradient id="linear-gradient" x1="25" y1="6.78" x2="25" y2="41.74" gradientUnits="userSpaceOnUse"><stop offset="0" stop-color="#ffd800"/><stop offset="1" stop-color="#ffc52b"/></linearGradient></defs><path class="cls-1" d="M41.62,10.77c-3.98-3.2-10.28-3.75-10.55-3.77-.42-.04-.82.2-.99.59-.02.02-.15.34-.3.83,2.63.45,5.87,1.34,8.79,3.16.47.29.61.91.32,1.38-.19.31-.52.48-.85.48-.18,0-.36-.05-.53-.15-5.03-3.12-11.31-3.28-12.52-3.28s-7.5.16-12.52,3.28c-.47.29-1.09.15-1.38-.32-.29-.47-.15-1.09.32-1.38,2.93-1.81,6.16-2.71,8.79-3.15-.15-.5-.29-.81-.3-.84-.18-.39-.57-.63-.99-.59-.27.02-6.57.56-10.6,3.81-2.11,1.95-6.32,13.34-6.32,23.19,0,.18.05.34.13.5,2.91,5.11,10.84,6.45,12.65,6.5h.03c.32,0,.62-.15.81-.41l1.83-2.52c-4.93-1.27-7.45-3.44-7.6-3.57-.41-.36-.45-1-.09-1.41.36-.41,1-.45,1.41-.09.06.05,4.7,3.99,13.82,3.99s13.78-3.95,13.83-3.99c.41-.36,1.04-.32,1.41.09.36.41.32,1.04-.09,1.41-.14.13-2.66,2.29-7.6,3.57l1.83,2.52c.19.26.49.41.81.41h.03c1.81-.06,9.74-1.39,12.65-6.5.09-.15.13-.32.13-.5,0-9.85-4.21-21.24-6.38-23.23ZM18.5,30c-1.93,0-3.5-1.79-3.5-4s1.57-4,3.5-4,3.5,1.79,3.5,4-1.57,4-3.5,4ZM31.5,30c-1.93,0-3.5-1.79-3.5-4s1.57-4,3.5-4,3.5,1.79,3.5,4-1.57,4-3.5,4Z"/></svg>