<?xml version="1.0" encoding="UTF-8"?><svg id="Layer_1" xmlns="http://www.w3.org/2000/svg" xmlns:xlink="http://www.w3.org/1999/xlink" viewBox="0 0 50 50"><defs><style>.cls-1{fill:url(#linear-gradient);stroke-width:0px;}</style><linearGradient id="linear-gradient" x1="25" y1="2.78" x2="25" y2="46.86" gradientUnits="userSpaceOnUse"><stop offset="0" stop-color="#ffd800"/><stop offset="1" stop-color="#ffc52b"/></linearGradient></defs><path class="cls-1" d="M16,3c-7.17,0-13,5.83-13,13v18c0,7.17,5.83,13,13,13h18c7.17,0,13-5.83,13-13v-18c0-7.17-5.83-13-13-13h-18ZM37,11c1.1,0,2,.9,2,2s-.9,2-2,2-2-.9-2-2,.9-2,2-2ZM25,14c6.07,0,11,4.93,11,11s-4.93,11-11,11-11-4.93-11-11,4.93-11,11-11ZM25,16c-4.96,0-9,4.04-9,9s4.04,9,9,9,9-4.04,9-9-4.04-9-9-9Z"/></svg>